<svg version="1.1" id="Layer_1" xmlns="http://www.w3.org/2000/svg" xmlns:xlink="http://www.w3.org/1999/xlink" x="0px" y="0px"
	 width="100%" viewBox="0 0 297 123" enable-background="new 0 0 297 123" xml:space="preserve">
<path fill="#263238" opacity="1.000000" stroke="none" 
	d="
M178.000000,124.000000 
	C118.666687,124.000000 59.833370,124.000000 1.000039,124.000000 
	C1.000026,83.000031 1.000026,42.000061 1.000013,1.000067 
	C99.999939,1.000045 198.999878,1.000045 297.999878,1.000022 
	C297.999908,41.999928 297.999908,82.999855 297.999939,123.999893 
	C258.166656,124.000000 218.333328,124.000000 178.000000,124.000000 
M197.996246,85.996361 
	C197.996246,85.996361 197.918335,86.017410 198.273453,85.542351 
	C198.507538,85.001022 198.741638,84.459694 198.966827,83.984886 
	C198.966827,83.984886 198.902069,83.967262 199.536545,83.730171 
	C201.199112,81.617470 202.861694,79.504768 205.015778,76.767502 
	C208.174133,84.067139 211.004349,90.889671 214.099838,97.589645 
	C215.016525,99.573730 216.680603,101.212502 218.093430,103.210411 
	C218.093430,103.210411 218.044403,103.425537 218.352127,104.162529 
	C219.773926,104.736465 221.235779,105.877708 222.610184,105.780640 
	C227.196777,105.456688 231.740875,104.575546 236.322601,104.124893 
	C240.506226,103.713402 241.336975,101.796913 239.672516,98.132767 
	C238.327209,95.171196 236.709106,92.124741 238.974686,88.887466 
	C238.974686,88.887466 238.917526,88.937614 239.657822,88.895660 
	C242.105209,87.930298 244.552612,86.964943 247.257431,86.552422 
	C247.904007,87.005173 248.550583,87.457924 249.087112,87.942703 
	C249.087112,87.942703 249.055664,87.832512 249.411636,88.500511 
	C254.539261,89.331635 259.648773,90.310638 264.800842,90.942245 
	C268.274078,91.368019 269.703613,89.480049 270.075012,85.968369 
	C271.783478,69.814331 273.858704,53.697788 275.413177,37.530373 
	C275.609558,35.487881 273.509308,33.224567 272.114258,30.812595 
	C271.721069,30.383474 271.327881,29.954353 270.719940,28.794458 
	C266.618988,24.164335 262.468231,24.018139 258.781464,28.786524 
	C258.265839,29.210682 257.750183,29.634842 256.571960,30.275131 
	C254.686279,31.550291 252.800613,32.825451 250.974930,34.124840 
	C250.974930,34.124840 250.930817,34.172176 250.649185,33.508961 
	C249.744690,32.851990 248.929779,31.859262 247.921753,31.590300 
	C238.478226,29.070549 229.118454,28.990738 219.161621,32.978340 
	C217.616455,33.396610 216.071304,33.814880 214.525848,34.400375 
	C214.525848,34.400375 214.358643,34.402008 213.918503,33.776131 
	C211.564240,30.200947 209.209991,26.625763 206.960114,23.084002 
	C206.960114,23.084002 206.926239,23.188229 206.776901,22.734282 
	C206.210526,22.931969 205.644150,23.129656 204.966888,23.811291 
	C204.688980,24.214489 204.411057,24.617687 203.961502,25.209333 
	C203.809723,25.424940 203.761566,25.664154 203.614243,26.543858 
	C202.756226,28.031103 201.898209,29.518349 200.888504,31.204779 
	C200.758484,31.428076 200.727203,31.666883 200.679535,32.341091 
	C200.553925,32.609783 200.373383,32.834290 199.761673,33.472778 
	C199.515244,34.009003 199.268799,34.545227 199.001968,35.002357 
	C199.001968,35.002357 199.081070,34.981998 198.726166,35.457359 
	C198.491867,35.998764 198.257568,36.540169 198.002304,37.003136 
	C198.002304,37.003136 198.080765,36.982227 197.726105,37.457623 
	C197.491806,37.998924 197.257507,38.540230 197.002304,39.003208 
	C197.002304,39.003208 197.080643,38.982342 196.726028,39.457729 
	C196.491760,39.998993 196.257492,40.540260 196.012970,41.007164 
	C196.012970,41.007164 196.087341,40.997017 195.928482,41.199139 
	C195.787781,41.422901 195.749817,41.665298 195.684219,42.349785 
	C195.550613,42.619827 195.364075,42.846264 194.478409,43.264748 
	C192.222427,45.990192 189.966461,48.715637 187.646072,51.131569 
	C187.646072,51.131569 187.955292,51.065769 187.652634,50.474895 
	C186.926315,50.002911 186.199982,49.530926 185.026505,48.800064 
	C184.332642,48.041962 183.638794,47.283855 182.669388,45.809658 
	C181.613739,45.230110 180.558090,44.650562 178.949753,44.003372 
	C178.299713,43.658360 177.649673,43.313343 176.834610,42.431572 
	C177.211075,41.130924 177.299850,39.629951 178.032730,38.577484 
	C179.081894,37.070854 180.601700,35.891960 182.079422,34.280483 
	C182.223587,34.101086 182.406433,33.980145 183.097794,33.794487 
	C183.015488,33.212875 182.933182,32.631264 182.923996,32.026043 
	C182.923996,32.026043 182.947250,32.099274 182.873718,31.430792 
	C182.204834,30.634031 181.535950,29.837273 180.936401,29.029896 
	C180.936401,29.029896 180.944778,29.099518 180.869095,28.432003 
	C180.197937,27.637304 179.526779,26.842606 178.922119,26.025225 
	C178.922119,26.025225 178.943008,26.092297 178.859665,25.415611 
	C178.158142,24.630081 177.456604,23.844551 176.400894,22.786076 
	C176.248184,22.375902 176.095459,21.965729 175.875305,20.811291 
	C175.205917,19.889959 174.536530,18.968626 173.971527,18.098803 
	C173.971527,18.098803 173.919693,18.203043 173.719467,17.647127 
	C172.839859,17.889231 171.960251,18.131334 170.853210,18.779564 
	C170.408356,19.208973 169.963501,19.638380 168.767578,20.227484 
	C167.864319,21.561750 166.961060,22.896017 165.813217,24.723848 
	C165.047043,25.506290 164.280869,26.288733 162.871658,27.174850 
	C162.254593,28.123320 161.637512,29.071789 160.730377,30.606031 
	C158.893829,32.421841 157.057281,34.237652 154.561661,36.283615 
	C153.830994,37.301689 152.353973,38.435036 152.490540,39.319164 
	C153.392395,45.158379 149.423141,44.890587 145.236969,44.814083 
	C144.470764,44.051743 143.704575,43.289402 142.744278,41.869408 
	C142.131836,41.253651 141.519394,40.637890 140.338577,39.698544 
	C138.218369,37.760593 136.098145,35.822647 133.782257,33.493340 
	C133.204529,33.705452 132.626785,33.917568 132.037750,34.052254 
	C132.037750,34.052254 132.115234,34.041355 131.549896,34.262707 
	C131.055115,34.865120 130.560333,35.467537 130.421234,36.353165 
	C130.421234,36.353165 130.266510,36.780716 129.808762,36.051304 
	C128.059799,33.145676 125.579132,32.664967 122.500946,33.672703 
	C116.341423,35.689213 110.127090,37.540939 103.992073,39.627350 
	C102.852570,40.014874 101.979134,41.184765 100.602608,42.720055 
	C100.208176,47.262760 98.237686,51.981007 102.173157,56.253433 
	C102.173157,56.253433 102.016861,56.408047 102.462372,56.967743 
	C103.301308,58.334995 104.140251,59.702244 104.195198,61.045113 
	C103.434166,60.870441 102.673141,60.695766 101.463051,60.013058 
	C97.979782,60.363327 94.496521,60.713596 91.118919,61.117348 
	C91.118919,61.117348 91.065887,61.223244 90.478035,60.783325 
	C89.732254,59.182304 89.103806,57.511959 88.209671,55.998585 
	C87.192505,54.276955 85.938042,52.695522 84.318787,50.614948 
	C82.519119,48.538280 80.719452,46.461617 78.689941,43.730309 
	C77.761078,43.171646 76.832214,42.612980 75.971039,42.072247 
	C75.971039,42.072247 75.950737,42.139259 75.710587,41.475483 
	C72.830971,40.034771 70.045380,37.610977 67.055313,37.324978 
	C54.673740,36.140675 42.404495,36.711697 31.312113,43.393810 
	C29.704847,44.362038 28.469423,45.947525 26.786736,47.600239 
	C26.376060,47.752991 25.965385,47.905743 24.781057,48.143085 
	C23.878664,48.912163 22.976271,49.681240 21.903719,50.742348 
	C21.747780,50.916435 21.555691,51.028629 20.763742,51.277527 
	C18.396273,54.595253 20.917656,55.729141 23.628769,57.215443 
	C23.772209,57.626682 23.915649,58.037922 24.135090,59.208973 
	C24.853937,60.116367 25.572786,61.023762 26.630577,62.216656 
	C26.773705,62.627342 26.916832,63.038029 27.126177,64.193825 
	C27.800039,65.113892 28.473902,66.033951 29.081274,66.974525 
	C29.081274,66.974525 29.064201,66.907074 29.104599,67.645874 
	C30.178289,69.071884 31.251980,70.497894 32.626125,72.062881 
	C32.817219,72.190826 32.948906,72.363960 33.567268,73.073242 
	C35.803928,75.280533 38.844765,77.099518 40.131989,79.765266 
	C44.656483,89.135185 48.465736,98.847565 52.793449,108.317085 
	C54.187237,111.366837 56.343884,114.067947 58.054947,116.896400 
	C58.054947,116.896400 58.087688,116.800003 58.341362,117.408600 
	C64.750313,119.445335 69.880783,115.216652 75.564911,113.768593 
	C76.544456,113.519051 77.172829,111.891022 77.956718,110.974060 
	C77.956718,110.974060 77.882446,110.967064 78.478287,110.680885 
	C77.987160,106.453476 77.496025,102.226067 77.029984,97.293510 
	C77.366486,96.192673 77.702988,95.091843 78.491478,94.422005 
	C79.689209,95.842331 80.886940,97.262650 82.239075,99.406334 
	C83.552757,100.560623 84.810257,102.623260 86.190056,102.708611 
	C91.555908,103.040504 97.157387,103.590294 102.284431,102.397118 
	C105.949310,101.544220 108.604942,100.721237 111.032700,103.956131 
	C111.032700,103.956131 111.041267,103.874748 111.340263,104.481567 
	C116.168648,104.280807 121.004807,104.188560 125.822853,103.843521 
	C129.409012,103.586700 131.100708,101.444695 131.010025,97.824768 
	C130.938171,94.956352 130.995560,92.084709 130.995560,88.281525 
	C133.945023,89.626930 135.598663,90.325005 137.202911,91.122444 
	C145.548676,95.270950 153.811417,99.598831 162.282028,103.472893 
	C163.875519,104.201668 167.702072,103.729538 168.065628,102.829239 
	C169.649414,98.907379 172.566696,98.954346 175.808990,98.997116 
	C179.635910,99.047577 183.508224,99.323593 187.274246,98.834648 
	C189.266586,98.575974 191.075119,96.901398 193.229279,95.236671 
	C194.471939,92.822868 195.714615,90.409065 197.305023,87.527412 
	C197.528397,86.991096 197.751770,86.454781 197.996246,85.996361 
z"/>
<path fill="#385D9B" opacity="1.000000" stroke="none" 
	d="
M27.059959,63.448715 
	C26.916832,63.038029 26.773705,62.627342 26.329151,61.755840 
	C25.371513,60.346405 24.715302,59.397781 24.059090,58.449162 
	C23.915649,58.037922 23.772209,57.626682 23.326843,56.744881 
	C22.459099,54.542519 21.893276,52.810726 21.327454,51.078930 
	C21.555691,51.028629 21.747780,50.916435 22.301498,50.430267 
	C23.651091,49.431622 24.602901,48.745060 25.554710,48.058495 
	C25.965385,47.905743 26.376060,47.752991 27.263126,47.293018 
	C29.513643,46.066292 31.240044,45.036507 33.069477,44.244801 
	C47.091953,38.176453 61.276882,35.079693 75.950737,42.139259 
	C75.950737,42.139259 75.971039,42.072247 76.123955,42.323463 
	C77.157845,43.178101 78.038811,43.781525 78.919785,44.384949 
	C80.719452,46.461617 82.519119,48.538280 84.675941,51.199062 
	C85.886307,55.387848 86.739510,58.992519 87.728897,63.172497 
	C88.721817,62.592499 89.893852,61.907875 91.065887,61.223244 
	C91.065887,61.223244 91.118919,61.117348 91.521065,61.154022 
	C95.252846,60.967491 98.582474,60.744293 101.912109,60.521095 
	C102.673141,60.695766 103.434166,60.870441 104.917587,61.010891 
	C107.214684,56.554279 106.923927,56.187645 102.016861,56.408047 
	C102.016861,56.408047 102.173157,56.253433 102.062469,55.714207 
	C101.970963,50.784443 101.990135,46.393902 102.376083,41.923344 
	C110.565628,39.413246 118.388412,36.983166 126.623848,34.424900 
	C126.967888,37.375309 127.202873,39.390480 127.437859,41.405655 
	C127.738716,41.459820 128.039581,41.513985 128.340439,41.568150 
	C128.982468,39.972340 129.624481,38.376526 130.266510,36.780716 
	C130.266510,36.780716 130.421234,36.353165 130.563278,36.204308 
	C131.175293,35.384090 131.645264,34.712723 132.115234,34.041355 
	C132.115234,34.041355 132.037750,34.052254 132.364227,34.041656 
	C133.119781,33.982273 133.548859,33.933483 133.977936,33.884697 
	C136.098145,35.822647 138.218369,37.760593 140.731476,40.172974 
	C141.729050,41.273956 142.333710,41.900509 142.938370,42.527061 
	C143.704575,43.289402 144.470764,44.051743 145.723526,45.223358 
	C150.345261,49.211399 152.474228,44.995415 154.399567,44.058826 
	C154.732559,40.812607 154.976639,38.433037 155.220734,36.053467 
	C157.057281,34.237652 158.893829,32.421841 161.122070,30.107759 
	C162.180740,28.763380 162.847702,27.917273 163.514679,27.071171 
	C164.280869,26.288733 165.047043,25.506290 166.193085,24.260399 
	C167.554855,22.553894 168.536743,21.310839 169.518646,20.067787 
	C169.963501,19.638380 170.408356,19.208973 171.315582,18.496593 
	C172.491867,18.210094 173.205780,18.206568 173.919693,18.203043 
	C173.919693,18.203043 173.971527,18.098803 173.993378,18.409754 
	C174.657745,19.665655 175.300247,20.610607 175.942749,21.555557 
	C176.095459,21.965729 176.248184,22.375902 176.697815,23.216705 
	C177.644150,24.462322 178.293579,25.277309 178.943008,26.092297 
	C178.943008,26.092297 178.922119,26.025225 178.975525,26.341122 
	C179.667542,27.471184 180.306168,28.285349 180.944778,29.099518 
	C180.944778,29.099518 180.936401,29.029896 180.995544,29.336605 
	C181.685532,30.461967 182.316391,31.280621 182.947250,32.099274 
	C182.947250,32.099274 182.923996,32.026043 182.883759,32.352592 
	C182.771652,33.091976 182.699799,33.504818 182.627945,33.917660 
	C182.406433,33.980145 182.223587,34.101086 181.657059,34.564667 
	C177.717194,36.665581 174.199677,38.482304 169.465637,40.927349 
	C172.979065,41.879147 174.989349,42.423737 176.999634,42.968327 
	C177.649673,43.313343 178.299713,43.658360 179.475586,44.291023 
	C180.982590,45.227699 181.963760,45.876724 182.944946,46.525749 
	C183.638794,47.283855 184.332642,48.041962 185.433624,49.218033 
	C186.545609,50.112595 187.250443,50.589180 187.955292,51.065769 
	C187.955292,51.065769 187.646072,51.131569 187.677063,51.576546 
	C187.844391,53.209755 187.980728,54.397991 188.298264,57.165844 
	C191.014343,51.541073 193.069473,47.285088 195.124588,43.029099 
	C195.364075,42.846264 195.550613,42.619827 195.839722,41.912224 
	C195.995209,41.474667 196.087341,40.997017 196.087341,40.997017 
	C196.087341,40.997017 196.012970,41.007164 196.222946,40.824718 
	C196.648834,40.088963 196.864731,39.535648 197.080627,38.982338 
	C197.080643,38.982342 197.002304,39.003208 197.217667,38.822754 
	C197.648941,38.088943 197.864853,37.535587 198.080765,36.982227 
	C198.080765,36.982227 198.002304,37.003136 198.217865,36.822792 
	C198.649292,36.088966 198.865173,35.535480 199.081055,34.981995 
	C199.081070,34.981998 199.001968,35.002357 199.218048,34.824482 
	C199.668716,34.102612 199.903305,33.558613 200.137894,33.014618 
	C200.373383,32.834290 200.553925,32.609783 200.816681,31.907127 
	C200.953842,31.473166 201.040176,31.005592 201.040176,31.005592 
	C201.898209,29.518349 202.756226,28.031103 203.812256,26.015036 
	C204.010269,25.486214 204.133148,25.020887 204.133148,25.020887 
	C204.411057,24.617687 204.688980,24.214489 205.325745,23.501568 
	C206.098480,23.190639 206.512360,23.189434 206.926239,23.188229 
	C206.926239,23.188229 206.960114,23.084002 207.007050,23.422066 
	C208.274429,26.679592 209.293900,29.710747 210.821579,32.459435 
	C211.374786,33.454777 213.144196,33.774170 214.358643,34.402008 
	C214.358643,34.402008 214.525848,34.400375 214.819702,34.552170 
	C216.741730,34.406868 218.369888,34.109768 220.392792,33.786331 
	C230.869659,31.383892 240.929886,30.610241 250.930817,34.172176 
	C250.930817,34.172176 250.974930,34.124840 251.145355,34.389130 
	C252.295227,35.145794 253.274689,35.638172 254.389099,36.198395 
	C255.434570,33.942661 256.334564,32.000832 257.234558,30.059002 
	C257.750183,29.634842 258.265839,29.210682 259.299561,28.433140 
	C263.839844,26.127148 267.466980,27.213058 270.934692,29.525234 
	C271.327881,29.954353 271.721069,30.383474 272.480621,31.313744 
	C272.818695,35.666649 273.077911,39.546055 272.710632,43.365208 
	C271.361725,57.390919 269.748016,71.391037 268.368042,85.413986 
	C268.044098,88.705780 266.399872,89.626831 263.410126,89.290375 
	C258.631134,88.752571 253.841049,88.313393 249.055664,87.832520 
	C249.055664,87.832512 249.087112,87.942703 249.085144,87.500740 
	C249.962036,80.160309 250.857849,73.263947 251.713699,66.362617 
	C252.273743,61.846546 251.584106,61.353561 246.516235,62.834976 
	C245.128174,63.784103 244.023010,64.630653 242.638336,65.711517 
	C242.291672,67.964058 242.224533,69.982300 242.158401,72.401360 
	C242.781052,78.522675 246.920013,84.949860 238.917526,88.937614 
	C238.917526,88.937614 238.974686,88.887466 238.602570,88.941353 
	C235.341431,89.830360 234.679153,91.450172 236.074509,94.196381 
	C237.236816,96.483917 238.031982,98.957993 239.537140,102.716225 
	C231.701172,102.974831 224.872787,103.200188 218.044403,103.425537 
	C218.044403,103.425537 218.093430,103.210411 217.966431,102.755592 
	C213.669159,92.554718 209.498901,82.808662 205.328644,73.062607 
	C204.787384,73.120987 204.246140,73.179367 203.704880,73.237747 
	C202.103943,76.814255 200.503006,80.390755 198.902069,83.967262 
	C198.902069,83.967262 198.966827,83.984886 198.765778,84.170776 
	C198.349258,84.910255 198.133804,85.463837 197.918335,86.017410 
	C197.918335,86.017410 197.996246,85.996361 197.784790,86.174973 
	C197.367981,86.900810 197.162643,87.448036 196.957291,87.995262 
	C195.714615,90.409065 194.471939,92.822868 192.719299,95.731674 
	C184.699036,96.664726 177.188751,97.102776 168.524139,97.608147 
	C170.695587,92.722771 172.264313,89.193420 174.017822,85.248337 
	C168.911163,84.900734 166.487701,86.287209 166.917587,91.305824 
	C167.237534,95.041061 166.980606,98.825722 166.980606,104.045853 
	C153.976456,97.648758 142.102097,91.807426 129.325851,85.522430 
	C129.325851,90.443489 129.261337,94.057457 129.346603,97.667885 
	C129.412842,100.472153 128.386719,101.915398 125.381332,102.159042 
	C120.586456,102.547752 115.819839,103.284920 111.041267,103.874748 
	C111.041267,103.874748 111.032700,103.956131 110.949890,103.604843 
	C110.410332,101.366989 109.953590,99.480423 109.394646,97.171692 
	C100.367386,102.958267 91.376122,104.814568 82.084679,98.682968 
	C80.886940,97.262650 79.689209,95.842331 78.150772,93.846130 
	C76.898697,90.032799 75.987328,86.795341 75.075958,83.557892 
	C74.585121,83.536110 74.094276,83.514336 73.603439,83.492554 
	C73.377670,85.356583 72.734192,87.287300 73.018822,89.069832 
	C73.511551,92.155655 74.579552,95.149612 75.489578,98.584198 
	C76.342751,102.979874 77.112595,106.973473 77.882446,110.967064 
	C77.882446,110.967064 77.956718,110.974060 77.629456,111.099045 
	C70.897354,113.082687 64.492523,114.941345 58.087688,116.800003 
	C58.087688,116.800003 58.054947,116.896400 58.047470,116.544754 
	C52.324722,103.162903 46.474121,90.189392 40.976856,77.067856 
	C39.333294,73.144798 37.475719,70.901291 33.021183,72.582268 
	C32.948906,72.363960 32.817219,72.190826 32.345406,71.678177 
	C31.064522,69.831345 30.064362,68.369209 29.064201,66.907074 
	C29.064201,66.907074 29.081274,66.974525 29.029720,66.631241 
	C28.338764,65.341545 27.699362,64.395126 27.059959,63.448715 
M71.275391,103.927101 
	C69.893623,98.281113 68.247864,92.679596 67.285011,86.963043 
	C66.981590,85.161621 68.081253,82.728333 69.279884,81.145462 
	C72.551857,76.824593 77.229309,73.295326 79.533455,68.567215 
	C85.583099,56.153309 78.742409,46.631413 67.288460,44.431435 
	C54.948124,42.061199 42.413811,44.198147 31.294397,51.067520 
	C30.165731,51.764790 28.496986,53.521954 28.737835,54.180897 
	C30.073322,57.834667 31.467999,61.659512 33.827858,64.647476 
	C34.721272,65.778687 38.246704,64.831169 40.932114,64.831169 
	C41.530670,66.122139 42.238174,67.599197 42.905163,69.094322 
	C48.570751,81.794357 54.145908,94.536270 60.003555,107.146996 
	C60.671146,108.584236 63.514622,110.508926 64.310265,110.114090 
	C66.938957,108.809578 72.202820,110.428268 71.275391,103.927101 
M151.033905,81.656067 
	C145.651276,75.321747 139.032883,70.864227 129.882309,68.835518 
	C134.725891,63.808144 138.953690,59.625530 142.889893,55.184456 
	C143.830490,54.123226 144.646667,51.449463 144.071594,50.800087 
	C141.159393,47.511616 137.769592,44.646099 134.138580,41.250149 
	C130.468750,46.295380 127.161964,50.841488 123.855186,55.387596 
	C123.465424,55.335770 123.075653,55.283943 122.685890,55.232117 
	C122.330833,50.932777 121.975769,46.633434 121.559029,41.587170 
	C116.837936,42.889439 112.296707,43.807350 108.039833,45.458408 
	C105.930862,46.276386 105.453072,48.317764 108.088371,49.892265 
	C108.931122,50.395782 109.702278,51.462177 109.965218,52.419601 
	C111.432571,57.762630 111.887260,63.573269 114.302742,68.419250 
	C117.441154,74.715591 117.898361,80.471436 115.766525,87.039742 
	C114.627144,90.550224 114.866539,94.508217 114.430176,98.789169 
	C118.744835,98.001068 121.650558,97.470322 125.162292,96.828880 
	C125.162292,90.706635 125.162292,84.859116 125.162292,78.102585 
	C137.838623,84.316376 149.606628,90.084915 161.602753,95.965279 
	C162.555923,86.295998 162.554230,86.300484 154.421799,83.226578 
	C153.490814,82.874680 152.591827,82.438179 151.033905,81.656067 
M198.651978,74.057861 
	C200.002197,71.814987 199.960114,68.543930 204.109375,68.666466 
	C208.199478,68.787262 209.427124,71.374817 210.676453,74.356789 
	C213.504791,81.107628 216.585815,87.764725 219.104538,94.628578 
	C220.600479,98.705261 222.093521,100.881813 227.226654,100.188438 
	C233.418854,99.352013 233.926514,99.526321 231.609253,93.900238 
	C223.565750,74.371498 215.442139,54.875721 207.309280,35.383976 
	C206.919815,34.450539 206.151108,33.675343 205.253494,32.388462 
	C200.057831,42.764503 195.228638,52.572483 190.230286,62.293484 
	C188.676590,65.315201 187.629440,68.054924 190.445862,70.110451 
	C184.969055,77.534691 179.696411,84.682190 174.276245,92.029663 
	C175.697495,93.026283 176.283127,93.732613 176.988708,93.885582 
	C183.424255,95.280785 190.475449,91.641029 193.248123,85.600830 
	C194.913925,81.971901 196.600937,78.352699 198.651978,74.057861 
M240.934601,61.510456 
	C244.212921,58.468273 247.766388,55.668858 250.710724,52.331966 
	C256.354004,45.936310 254.709747,39.342770 246.475891,37.157070 
	C236.333206,34.464672 226.174561,35.701786 216.144577,39.223129 
	C217.111588,42.851830 217.905319,46.069061 218.856567,49.239017 
	C219.107681,50.075832 220.089844,51.494568 220.322449,51.416286 
	C224.253769,50.093361 223.435410,53.590263 223.851669,55.142334 
	C226.174133,63.801880 228.183716,72.544800 230.425583,81.226860 
	C231.050583,83.647346 231.768143,86.157448 235.451324,85.037048 
	C238.479324,84.115959 239.924515,82.746895 239.107422,79.341888 
	C238.335190,76.123726 238.360840,72.701355 237.468857,69.528091 
	C236.494614,66.062111 237.428314,63.741947 240.934601,61.510456 
M152.075073,51.550716 
	C142.589417,61.260391 145.976120,75.297119 158.311371,80.282326 
	C164.914368,82.950882 170.251312,80.161316 175.808746,78.418488 
	C179.480682,77.266953 182.591202,74.325195 185.485870,72.482384 
	C180.886414,61.488518 174.396805,66.315781 167.848694,69.083946 
	C171.291855,64.283989 174.840363,60.228542 178.760452,56.571411 
	C182.050095,53.502434 181.604340,51.219482 177.965286,49.248512 
	C176.094498,48.235256 174.059113,47.376762 171.993835,46.898853 
	C164.928421,45.263893 158.553543,47.284775 152.075073,51.550716 
M113.099564,81.087540 
	C114.684738,67.739410 104.497223,61.478405 92.669403,65.639572 
	C86.236778,67.902649 82.936066,72.751877 80.704880,78.897949 
	C77.023514,89.038681 85.026306,99.208557 95.786568,97.641983 
	C105.008087,96.299446 110.601166,90.833771 113.099564,81.087540 
M254.994598,62.536953 
	C254.030899,68.969589 252.548492,75.377945 252.245850,81.841537 
	C251.927719,88.635597 258.062195,84.877335 261.119049,86.156143 
	C262.039246,86.541100 263.732513,85.092896 265.058899,84.457840 
	C265.143951,84.417114 265.128448,84.147179 265.143585,83.982384 
	C266.240723,72.027382 267.336243,60.072227 268.487366,47.511497 
	C263.992889,48.611855 260.074249,49.289524 256.358612,50.560566 
	C252.682129,51.818211 252.219284,54.946865 254.552994,58.320835 
	C255.122269,59.143871 254.869629,60.535427 254.994598,62.536953 
M265.951660,42.303253 
	C269.729889,40.918789 271.343872,38.105373 269.778625,34.491737 
	C268.384216,31.272573 264.950348,29.548965 261.939026,31.311308 
	C260.169830,32.346729 259.045990,35.814960 259.027008,38.200035 
	C258.998291,41.803719 262.291992,42.249317 265.951660,42.303253 
M163.721634,38.974274 
	C167.363083,37.058643 171.013809,35.160408 174.642883,33.221634 
	C177.333923,31.783985 176.334900,30.157993 174.850800,28.492054 
	C173.295731,26.746435 171.498795,24.565722 169.246552,26.852016 
	C166.413055,29.728336 164.115463,33.141644 161.664978,36.382469 
	C160.389389,38.069427 160.183945,39.441223 163.721634,38.974274 
z"/>
<path fill="#262831" opacity="1.000000" stroke="none" 
	d="
M111.190765,104.178162 
	C115.819839,103.284920 120.586456,102.547752 125.381332,102.159042 
	C128.386719,101.915398 129.412842,100.472153 129.346603,97.667885 
	C129.261337,94.057457 129.325851,90.443489 129.325851,85.522430 
	C142.102097,91.807426 153.976456,97.648758 166.980606,104.045853 
	C166.980606,98.825722 167.237534,95.041061 166.917587,91.305824 
	C166.487701,86.287209 168.911163,84.900734 174.017822,85.248337 
	C172.264313,89.193420 170.695587,92.722771 168.524139,97.608147 
	C177.188751,97.102776 184.699036,96.664726 192.587982,96.046371 
	C191.075119,96.901398 189.266586,98.575974 187.274246,98.834648 
	C183.508224,99.323593 179.635910,99.047577 175.808990,98.997116 
	C172.566696,98.954346 169.649414,98.907379 168.065628,102.829239 
	C167.702072,103.729538 163.875519,104.201668 162.282028,103.472893 
	C153.811417,99.598831 145.548676,95.270950 137.202911,91.122444 
	C135.598663,90.325005 133.945023,89.626930 130.995560,88.281525 
	C130.995560,92.084709 130.938171,94.956352 131.010025,97.824768 
	C131.100708,101.444695 129.409012,103.586700 125.822853,103.843521 
	C121.004807,104.188560 116.168648,104.280807 111.190765,104.178162 
z"/>
<path fill="#25272F" opacity="1.000000" stroke="none" 
	d="
M249.233643,88.166519 
	C253.841049,88.313393 258.631134,88.752571 263.410126,89.290375 
	C266.399872,89.626831 268.044098,88.705780 268.368042,85.413986 
	C269.748016,71.391037 271.361725,57.390919 272.710632,43.365208 
	C273.077911,39.546055 272.818695,35.666649 272.660034,31.439228 
	C273.509308,33.224567 275.609558,35.487881 275.413177,37.530373 
	C273.858704,53.697788 271.783478,69.814331 270.075012,85.968369 
	C269.703613,89.480049 268.274078,91.368019 264.800842,90.942245 
	C259.648773,90.310638 254.539261,89.331635 249.233643,88.166519 
z"/>
<path fill="#25262E" opacity="1.000000" stroke="none" 
	d="
M33.294228,72.827759 
	C37.475719,70.901291 39.333294,73.144798 40.976856,77.067856 
	C46.474121,90.189392 52.324722,103.162903 58.095764,116.560837 
	C56.343884,114.067947 54.187237,111.366837 52.793449,108.317085 
	C48.465736,98.847565 44.656483,89.135185 40.131989,79.765266 
	C38.844765,77.099518 35.803928,75.280533 33.294228,72.827759 
z"/>
<path fill="#25262E" opacity="1.000000" stroke="none" 
	d="
M75.830658,41.807373 
	C61.276882,35.079693 47.091953,38.176453 33.069477,44.244801 
	C31.240044,45.036507 29.513643,46.066292 27.400723,47.116589 
	C28.469423,45.947525 29.704847,44.362038 31.312113,43.393810 
	C42.404495,36.711697 54.673740,36.140675 67.055313,37.324978 
	C70.045380,37.610977 72.830971,40.034771 75.830658,41.807373 
z"/>
<path fill="#25272E" opacity="1.000000" stroke="none" 
	d="
M199.219299,83.848717 
	C200.503006,80.390755 202.103943,76.814255 203.704880,73.237747 
	C204.246140,73.179367 204.787384,73.120987 205.328644,73.062607 
	C209.498901,82.808662 213.669159,92.554718 217.920807,102.655136 
	C216.680603,101.212502 215.016525,99.573730 214.099838,97.589645 
	C211.004349,90.889671 208.174133,84.067139 205.015778,76.767502 
	C202.861694,79.504768 201.199112,81.617470 199.219299,83.848717 
z"/>
<path fill="#252830" opacity="1.000000" stroke="none" 
	d="
M130.037628,36.416008 
	C129.624481,38.376526 128.982468,39.972340 128.340439,41.568150 
	C128.039581,41.513985 127.738716,41.459820 127.437859,41.405655 
	C127.202873,39.390480 126.967888,37.375309 126.623848,34.424900 
	C118.388412,36.983166 110.565628,39.413246 102.119476,41.921600 
	C101.325035,41.997784 101.153969,41.995682 100.982903,41.993576 
	C101.979134,41.184765 102.852570,40.014874 103.992073,39.627350 
	C110.127090,37.540939 116.341423,35.689213 122.500946,33.672703 
	C125.579132,32.664967 128.059799,33.145676 130.037628,36.416008 
z"/>
<path fill="#25272E" opacity="1.000000" stroke="none" 
	d="
M218.198273,103.794037 
	C224.872787,103.200188 231.701172,102.974831 239.537140,102.716225 
	C238.031982,98.957993 237.236816,96.483917 236.074509,94.196381 
	C234.679153,91.450172 235.341431,89.830360 238.577423,88.912842 
	C236.709106,92.124741 238.327209,95.171196 239.672516,98.132767 
	C241.336975,101.796913 240.506226,103.713402 236.322601,104.124893 
	C231.740875,104.575546 227.196777,105.456688 222.610184,105.780640 
	C221.235779,105.877708 219.773926,104.736465 218.198273,103.794037 
z"/>
<path fill="#262831" opacity="1.000000" stroke="none" 
	d="
M82.161880,99.044647 
	C91.376122,104.814568 100.367386,102.958267 109.394646,97.171692 
	C109.953590,99.480423 110.410332,101.366989 110.990601,103.608963 
	C108.604942,100.721237 105.949310,101.544220 102.284431,102.397118 
	C97.157387,103.590294 91.555908,103.040504 86.190056,102.708611 
	C84.810257,102.623260 83.552757,100.560623 82.161880,99.044647 
z"/>
<path fill="#25272F" opacity="1.000000" stroke="none" 
	d="
M250.790009,33.840569 
	C240.929886,30.610241 230.869659,31.383892 220.387833,33.570297 
	C219.988129,33.380600 219.973755,32.948631 219.973755,32.948631 
	C229.118454,28.990738 238.478226,29.070549 247.921753,31.590300 
	C248.929779,31.859262 249.744690,32.851990 250.790009,33.840569 
z"/>
<path fill="#25272F" opacity="1.000000" stroke="none" 
	d="
M246.799164,62.732399 
	C251.584106,61.353561 252.273743,61.846546 251.713699,66.362617 
	C250.857849,73.263947 249.962036,80.160309 249.140167,87.484726 
	C248.550583,87.457924 247.904007,87.005173 247.128693,85.947495 
	C247.000000,84.904541 247.000031,84.466522 247.180359,83.673553 
	C248.184402,78.257225 249.328476,73.216339 249.654114,68.123116 
	C249.764664,66.394119 247.810074,64.533089 246.799164,62.732399 
z"/>
<path fill="#25272F" opacity="1.000000" stroke="none" 
	d="
M75.406258,98.182106 
	C74.579552,95.149612 73.511551,92.155655 73.018822,89.069832 
	C72.734192,87.287300 73.377670,85.356583 73.603439,83.492554 
	C74.094276,83.514336 74.585121,83.536110 75.075958,83.557892 
	C75.987328,86.795341 76.898697,90.032799 77.924774,93.630630 
	C77.702988,95.091843 77.366486,96.192673 76.617691,97.691406 
	C75.939026,98.120239 75.672646,98.151169 75.406258,98.182106 
z"/>
<path fill="#25272E" opacity="1.000000" stroke="none" 
	d="
M247.000046,84.028503 
	C247.000031,84.466522 247.000000,84.904541 246.999985,85.671074 
	C244.552612,86.964943 242.105209,87.930298 239.287674,88.916641 
	C246.920013,84.949860 242.781052,78.522675 242.382629,72.393730 
	C242.605850,71.985275 243.054108,71.964653 243.236694,72.289932 
	C244.612869,76.419647 245.806458,80.224075 247.000046,84.028503 
z"/>
<path fill="#25262E" opacity="1.000000" stroke="none" 
	d="
M58.214523,117.104301 
	C64.492523,114.941345 70.897354,113.082687 77.632805,111.061890 
	C77.172829,111.891022 76.544456,113.519051 75.564911,113.768593 
	C69.880783,115.216652 64.750313,119.445335 58.214523,117.104301 
z"/>
<path fill="#25272E" opacity="1.000000" stroke="none" 
	d="
M154.891205,36.168541 
	C154.976639,38.433037 154.732559,40.812607 154.399567,44.058826 
	C152.474228,44.995415 150.345261,49.211399 145.962494,45.353386 
	C149.423141,44.890587 153.392395,45.158379 152.490540,39.319164 
	C152.353973,38.435036 153.830994,37.301689 154.891205,36.168541 
z"/>
<path fill="#25262D" opacity="1.000000" stroke="none" 
	d="
M176.917114,42.699951 
	C174.989349,42.423737 172.979065,41.879147 169.465637,40.927349 
	C174.199677,38.482304 177.717194,36.665581 181.577621,34.710991 
	C180.601700,35.891960 179.081894,37.070854 178.032730,38.577484 
	C177.299850,39.629951 177.211075,41.130924 176.917114,42.699951 
z"/>
<path fill="#25262D" opacity="1.000000" stroke="none" 
	d="
M194.801498,43.146923 
	C193.069473,47.285088 191.014343,51.541073 188.298264,57.165844 
	C187.980728,54.397991 187.844391,53.209755 187.709274,51.731300 
	C189.966461,48.715637 192.222427,45.990192 194.801498,43.146923 
z"/>
<path fill="#25262E" opacity="1.000000" stroke="none" 
	d="
M90.771957,61.003288 
	C89.893852,61.907875 88.721817,62.592499 87.728897,63.172497 
	C86.739510,58.992519 85.886307,55.387848 84.909912,51.418167 
	C85.938042,52.695522 87.192505,54.276955 88.209671,55.998585 
	C89.103806,57.511959 89.732254,59.182304 90.771957,61.003288 
z"/>
<path fill="#25262D" opacity="1.000000" stroke="none" 
	d="
M214.138580,34.089066 
	C213.144196,33.774170 211.374786,33.454777 210.821579,32.459435 
	C209.293900,29.710747 208.274429,26.679592 206.954865,23.405354 
	C209.209991,26.625763 211.564240,30.200947 214.138580,34.089066 
z"/>
<path fill="#25262E" opacity="1.000000" stroke="none" 
	d="
M75.489578,98.584198 
	C75.672646,98.151169 75.939026,98.120239 76.605148,98.043983 
	C77.496025,102.226067 77.987160,106.453476 78.180367,110.823975 
	C77.112595,106.973473 76.342751,102.979874 75.489578,98.584198 
z"/>
<path fill="#25262E" opacity="1.000000" stroke="none" 
	d="
M100.792755,42.356815 
	C101.153969,41.995682 101.325035,41.997784 101.752701,42.001625 
	C101.990135,46.393902 101.970963,50.784443 102.019592,55.612988 
	C98.237686,51.981007 100.208176,47.262760 100.792755,42.356815 
z"/>
<path fill="#25272F" opacity="1.000000" stroke="none" 
	d="
M270.827332,29.159847 
	C267.466980,27.213058 263.839844,26.127148 259.449951,28.232157 
	C262.468231,24.018139 266.618988,24.164335 270.827332,29.159847 
z"/>
<path fill="#25262E" opacity="1.000000" stroke="none" 
	d="
M101.687576,60.267075 
	C98.582474,60.744293 95.252846,60.967491 91.468231,61.127281 
	C94.496521,60.713596 97.979782,60.363327 101.687576,60.267075 
z"/>
<path fill="#25272F" opacity="1.000000" stroke="none" 
	d="
M256.903259,30.167067 
	C256.334564,32.000832 255.434570,33.942661 254.389099,36.198395 
	C253.274689,35.638172 252.295227,35.145794 251.115356,34.377014 
	C252.800613,32.825451 254.686279,31.550291 256.903259,30.167067 
z"/>
<path fill="#25262E" opacity="1.000000" stroke="none" 
	d="
M21.045597,51.178230 
	C21.893276,52.810726 22.459099,54.542519 23.156841,56.602234 
	C20.917656,55.729141 18.396273,54.595253 21.045597,51.178230 
z"/>
<path fill="#25262E" opacity="1.000000" stroke="none" 
	d="
M102.239616,56.687897 
	C106.923927,56.187645 107.214684,56.554279 105.309586,61.023083 
	C104.140251,59.702244 103.301308,58.334995 102.239616,56.687897 
z"/>
<path fill="#25262E" opacity="1.000000" stroke="none" 
	d="
M29.084400,67.276474 
	C30.064362,68.369209 31.064522,69.831345 32.195175,71.608688 
	C31.251980,70.497894 30.178289,69.071884 29.084400,67.276474 
z"/>
<path fill="#25262D" opacity="1.000000" stroke="none" 
	d="
M219.567688,32.963486 
	C219.973755,32.948631 219.988129,33.380600 219.993088,33.596634 
	C218.369888,34.109768 216.741730,34.406868 214.819855,34.468559 
	C216.071304,33.814880 217.616455,33.396610 219.567688,32.963486 
z"/>
<path fill="#25262D" opacity="1.000000" stroke="none" 
	d="
M169.143112,20.147635 
	C168.536743,21.310839 167.554855,22.553894 166.315369,24.013617 
	C166.961060,22.896017 167.864319,21.561750 169.143112,20.147635 
z"/>
<path fill="#25262D" opacity="1.000000" stroke="none" 
	d="
M163.193161,27.123009 
	C162.847702,27.917273 162.180740,28.763380 161.267105,29.814873 
	C161.637512,29.071789 162.254593,28.123320 163.193161,27.123009 
z"/>
<path fill="#25262D" opacity="1.000000" stroke="none" 
	d="
M173.819580,17.925085 
	C173.205780,18.206568 172.491867,18.210094 171.429291,18.293530 
	C171.960251,18.131334 172.839859,17.889231 173.819580,17.925085 
z"/>
<path fill="#25262E" opacity="1.000000" stroke="none" 
	d="
M27.093067,63.821270 
	C27.699362,64.395126 28.338764,65.341545 29.062965,66.620987 
	C28.473902,66.033951 27.800039,65.113892 27.093067,63.821270 
z"/>
<path fill="#25262D" opacity="1.000000" stroke="none" 
	d="
M175.909027,21.183426 
	C175.300247,20.610607 174.657745,19.665655 173.941193,18.383999 
	C174.536530,18.968626 175.205917,19.889959 175.909027,21.183426 
z"/>
<path fill="#25262D" opacity="1.000000" stroke="none" 
	d="
M178.901337,25.753954 
	C178.293579,25.277309 177.644150,24.462322 176.874893,23.353178 
	C177.456604,23.844551 178.158142,24.630081 178.901337,25.753954 
z"/>
<path fill="#25262E" opacity="1.000000" stroke="none" 
	d="
M25.167885,48.100792 
	C24.602901,48.745060 23.651091,49.431622 22.386578,50.284248 
	C22.976271,49.681240 23.878664,48.912163 25.167885,48.100792 
z"/>
<path fill="#25262D" opacity="1.000000" stroke="none" 
	d="
M182.807159,46.167702 
	C181.963760,45.876724 180.982590,45.227699 179.751923,44.324844 
	C180.558090,44.650562 181.613739,45.230110 182.807159,46.167702 
z"/>
<path fill="#25262D" opacity="1.000000" stroke="none" 
	d="
M180.906937,28.765759 
	C180.306168,28.285349 179.667542,27.471184 178.942276,26.352463 
	C179.526779,26.842606 180.197937,27.637304 180.906937,28.765759 
z"/>
<path fill="#25262E" opacity="1.000000" stroke="none" 
	d="
M78.804863,44.057629 
	C78.038811,43.781525 77.157845,43.178101 76.090111,42.314499 
	C76.832214,42.612980 77.761078,43.171646 78.804863,44.057629 
z"/>
<path fill="#25262D" opacity="1.000000" stroke="none" 
	d="
M182.910492,31.765034 
	C182.316391,31.280621 181.685532,30.461967 180.960876,29.341915 
	C181.535950,29.837273 182.204834,30.634031 182.910492,31.765034 
z"/>
<path fill="#25262E" opacity="1.000000" stroke="none" 
	d="
M24.097090,58.829067 
	C24.715302,59.397781 25.371513,60.346405 26.159681,61.613091 
	C25.572786,61.023762 24.853937,60.116367 24.097090,58.829067 
z"/>
<path fill="#252830" opacity="1.000000" stroke="none" 
	d="
M131.832565,34.152031 
	C131.645264,34.712723 131.175293,35.384090 130.385437,36.062706 
	C130.560333,35.467537 131.055115,34.865120 131.832565,34.152031 
z"/>
<path fill="#252830" opacity="1.000000" stroke="none" 
	d="
M133.880096,33.689018 
	C133.548859,33.933483 133.119781,33.982273 132.369873,34.080368 
	C132.626785,33.917568 133.204529,33.705452 133.880096,33.689018 
z"/>
<path fill="#25262D" opacity="1.000000" stroke="none" 
	d="
M182.862869,33.856071 
	C182.699799,33.504818 182.771652,33.091976 182.847198,32.364395 
	C182.933182,32.631264 183.015488,33.212875 182.862869,33.856071 
z"/>
<path fill="#25272E" opacity="1.000000" stroke="none" 
	d="
M142.841324,42.198235 
	C142.333710,41.900509 141.729050,41.273956 141.015671,40.334770 
	C141.519394,40.637890 142.131836,41.253651 142.841324,42.198235 
z"/>
<path fill="#25262D" opacity="1.000000" stroke="none" 
	d="
M206.851562,22.961254 
	C206.512360,23.189434 206.098480,23.190639 205.381195,23.259594 
	C205.644150,23.129656 206.210526,22.931969 206.851562,22.961254 
z"/>
<path fill="#25262D" opacity="1.000000" stroke="none" 
	d="
M187.803955,50.770332 
	C187.250443,50.589180 186.545609,50.112595 185.657211,49.347473 
	C186.199982,49.530926 186.926315,50.002911 187.803955,50.770332 
z"/>
<path fill="#25262D" opacity="1.000000" stroke="none" 
	d="
M198.903610,35.219677 
	C198.865173,35.535480 198.649292,36.088966 198.228333,36.862015 
	C198.257568,36.540169 198.491867,35.998764 198.903610,35.219677 
z"/>
<path fill="#25262D" opacity="1.000000" stroke="none" 
	d="
M197.903442,37.219925 
	C197.864853,37.535587 197.648941,38.088943 197.228119,38.861916 
	C197.257507,38.540230 197.491806,37.998924 197.903442,37.219925 
z"/>
<path fill="#25262D" opacity="1.000000" stroke="none" 
	d="
M199.949783,33.243698 
	C199.903305,33.558613 199.668716,34.102612 199.228241,34.864029 
	C199.268799,34.545227 199.515244,34.009003 199.949783,33.243698 
z"/>
<path fill="#25262D" opacity="1.000000" stroke="none" 
	d="
M196.903320,39.220032 
	C196.864731,39.535648 196.648834,40.088963 196.228073,40.861900 
	C196.257492,40.540260 196.491760,39.998993 196.903320,39.220032 
z"/>
<path fill="#25272E" opacity="1.000000" stroke="none" 
	d="
M198.095901,85.779877 
	C198.133804,85.463837 198.349258,84.910255 198.770233,84.137527 
	C198.741638,84.459694 198.507538,85.001022 198.095901,85.779877 
z"/>
<path fill="#25272E" opacity="1.000000" stroke="none" 
	d="
M197.131165,87.761337 
	C197.162643,87.448036 197.367981,86.900810 197.774231,86.136032 
	C197.751770,86.454781 197.528397,86.991096 197.131165,87.761337 
z"/>
<path fill="#25262D" opacity="1.000000" stroke="none" 
	d="
M200.964340,31.105186 
	C201.040176,31.005592 200.953842,31.473166 200.874252,31.697186 
	C200.727203,31.666883 200.758484,31.428076 200.964340,31.105186 
z"/>
<path fill="#25262D" opacity="1.000000" stroke="none" 
	d="
M196.007904,41.098076 
	C196.087341,40.997017 195.995209,41.474667 195.904907,41.700500 
	C195.749817,41.665298 195.787781,41.422901 196.007904,41.098076 
z"/>
<path fill="#25262D" opacity="1.000000" stroke="none" 
	d="
M204.047333,25.115110 
	C204.133148,25.020887 204.010269,25.486214 203.913651,25.706594 
	C203.761566,25.664154 203.809723,25.424940 204.047333,25.115110 
z"/>
<path fill="#F9C61B" opacity="1.000000" stroke="none" 
	d="
M71.369141,104.310814 
	C72.202820,110.428268 66.938957,108.809578 64.310265,110.114090 
	C63.514622,110.508926 60.671146,108.584236 60.003555,107.146996 
	C54.145908,94.536270 48.570751,81.794357 42.905163,69.094322 
	C42.238174,67.599197 41.530670,66.122139 40.932114,64.831169 
	C38.246704,64.831169 34.721272,65.778687 33.827858,64.647476 
	C31.467999,61.659512 30.073322,57.834667 28.737835,54.180897 
	C28.496986,53.521954 30.165731,51.764790 31.294397,51.067520 
	C42.413811,44.198147 54.948124,42.061199 67.288460,44.431435 
	C78.742409,46.631413 85.583099,56.153309 79.533455,68.567215 
	C77.229309,73.295326 72.551857,76.824593 69.279884,81.145462 
	C68.081253,82.728333 66.981590,85.161621 67.285011,86.963043 
	C68.247864,92.679596 69.893623,98.281113 71.369141,104.310814 
M72.365753,67.057213 
	C72.016029,59.482250 67.374435,55.956783 61.105328,58.706814 
	C60.137112,59.131538 58.925762,60.969940 59.144962,61.811069 
	C60.469440,66.893440 62.177311,71.875900 64.295959,78.603210 
	C67.542183,74.187813 69.894966,70.987640 72.365753,67.057213 
z"/>
<path fill="#F6C41B" opacity="1.000000" stroke="none" 
	d="
M151.355957,81.848480 
	C152.591827,82.438179 153.490814,82.874680 154.421799,83.226578 
	C162.554230,86.300484 162.555923,86.295998 161.602753,95.965279 
	C149.606628,90.084915 137.838623,84.316376 125.162292,78.102585 
	C125.162292,84.859116 125.162292,90.706635 125.162292,96.828880 
	C121.650558,97.470322 118.744835,98.001068 114.430176,98.789169 
	C114.866539,94.508217 114.627144,90.550224 115.766525,87.039742 
	C117.898361,80.471436 117.441154,74.715591 114.302742,68.419250 
	C111.887260,63.573269 111.432571,57.762630 109.965218,52.419601 
	C109.702278,51.462177 108.931122,50.395782 108.088371,49.892265 
	C105.453072,48.317764 105.930862,46.276386 108.039833,45.458408 
	C112.296707,43.807350 116.837936,42.889439 121.559029,41.587170 
	C121.975769,46.633434 122.330833,50.932777 122.685890,55.232117 
	C123.075653,55.283943 123.465424,55.335770 123.855186,55.387596 
	C127.161964,50.841488 130.468750,46.295380 134.138580,41.250149 
	C137.769592,44.646099 141.159393,47.511616 144.071594,50.800087 
	C144.646667,51.449463 143.830490,54.123226 142.889893,55.184456 
	C138.953690,59.625530 134.725891,63.808144 129.882309,68.835518 
	C139.032883,70.864227 145.651276,75.321747 151.355957,81.848480 
z"/>
<path fill="#F8C51B" opacity="1.000000" stroke="none" 
	d="
M198.465195,74.393494 
	C196.600937,78.352699 194.913925,81.971901 193.248123,85.600830 
	C190.475449,91.641029 183.424255,95.280785 176.988708,93.885582 
	C176.283127,93.732613 175.697495,93.026283 174.276245,92.029663 
	C179.696411,84.682190 184.969055,77.534691 190.445862,70.110451 
	C187.629440,68.054924 188.676590,65.315201 190.230286,62.293484 
	C195.228638,52.572483 200.057831,42.764503 205.253494,32.388462 
	C206.151108,33.675343 206.919815,34.450539 207.309280,35.383976 
	C215.442139,54.875721 223.565750,74.371498 231.609253,93.900238 
	C233.926514,99.526321 233.418854,99.352013 227.226654,100.188438 
	C222.093521,100.881813 220.600479,98.705261 219.104538,94.628578 
	C216.585815,87.764725 213.504791,81.107628 210.676453,74.356789 
	C209.427124,71.374817 208.199478,68.787262 204.109375,68.666466 
	C199.960114,68.543930 200.002197,71.814987 198.465195,74.393494 
M206.067200,54.630016 
	C204.545898,56.536549 203.024612,58.443081 200.829529,61.194016 
	C204.110504,61.576534 205.812408,61.774956 208.088043,62.040268 
	C207.407684,59.387955 206.888245,57.362976 206.067200,54.630016 
z"/>
<path fill="#F8C51B" opacity="1.000000" stroke="none" 
	d="
M240.656769,61.752464 
	C237.428314,63.741947 236.494614,66.062111 237.468857,69.528091 
	C238.360840,72.701355 238.335190,76.123726 239.107422,79.341888 
	C239.924515,82.746895 238.479324,84.115959 235.451324,85.037048 
	C231.768143,86.157448 231.050583,83.647346 230.425583,81.226860 
	C228.183716,72.544800 226.174133,63.801880 223.851669,55.142334 
	C223.435410,53.590263 224.253769,50.093361 220.322449,51.416286 
	C220.089844,51.494568 219.107681,50.075832 218.856567,49.239017 
	C217.905319,46.069061 217.111588,42.851830 216.144577,39.223129 
	C226.174561,35.701786 236.333206,34.464672 246.475891,37.157070 
	C254.709747,39.342770 256.354004,45.936310 250.710724,52.331966 
	C247.766388,55.668858 244.212921,58.468273 240.656769,61.752464 
M234.710236,54.481873 
	C235.232422,54.874264 236.116882,55.688412 236.223404,55.596920 
	C238.477844,53.660343 240.644699,51.621792 242.828659,49.603172 
	C242.611771,49.074062 242.394882,48.544952 242.177979,48.015842 
	C239.901321,48.119896 237.374664,47.681908 235.457733,48.565987 
	C234.554382,48.982597 234.821732,51.937649 234.710236,54.481873 
z"/>
<path fill="#F6C41B" opacity="1.000000" stroke="none" 
	d="
M152.323700,51.272228 
	C158.553543,47.284775 164.928421,45.263893 171.993835,46.898853 
	C174.059113,47.376762 176.094498,48.235256 177.965286,49.248512 
	C181.604340,51.219482 182.050095,53.502434 178.760452,56.571411 
	C174.840363,60.228542 171.291855,64.283989 167.848694,69.083946 
	C174.396805,66.315781 180.886414,61.488518 185.485870,72.482384 
	C182.591202,74.325195 179.480682,77.266953 175.808746,78.418488 
	C170.251312,80.161316 164.914368,82.950882 158.311371,80.282326 
	C145.976120,75.297119 142.589417,61.260391 152.323700,51.272228 
M169.946014,56.501152 
	C165.671738,52.944588 160.772995,53.070282 157.819260,56.812325 
	C154.741364,60.711662 155.388290,65.239937 159.823502,69.039261 
	C163.211502,65.116837 166.605011,61.188038 169.946014,56.501152 
z"/>
<path fill="#F7C41B" opacity="1.000000" stroke="none" 
	d="
M113.048119,81.512283 
	C110.601166,90.833771 105.008087,96.299446 95.786568,97.641983 
	C85.026306,99.208557 77.023514,89.038681 80.704880,78.897949 
	C82.936066,72.751877 86.236778,67.902649 92.669403,65.639572 
	C104.497223,61.478405 114.684738,67.739410 113.048119,81.512283 
M105.317741,78.972931 
	C105.774338,77.361641 106.230934,75.750351 106.418800,75.087387 
	C103.278564,75.765594 100.162170,77.452820 98.343750,76.543739 
	C96.555595,75.649788 96.084663,72.121033 94.693085,68.973434 
	C93.685249,70.310387 91.098396,72.209572 91.095497,74.112679 
	C91.091393,76.821945 92.229996,80.650192 94.230865,82.002945 
	C97.921028,84.497795 102.159584,83.677200 105.317741,78.972931 
z"/>
<path fill="#F6C41B" opacity="1.000000" stroke="none" 
	d="
M254.994751,62.101265 
	C254.869629,60.535427 255.122269,59.143871 254.552994,58.320835 
	C252.219284,54.946865 252.682129,51.818211 256.358612,50.560566 
	C260.074249,49.289524 263.992889,48.611855 268.487366,47.511497 
	C267.336243,60.072227 266.240723,72.027382 265.143585,83.982384 
	C265.128448,84.147179 265.143951,84.417114 265.058899,84.457840 
	C263.732513,85.092896 262.039246,86.541100 261.119049,86.156143 
	C258.062195,84.877335 251.927719,88.635597 252.245850,81.841537 
	C252.548492,75.377945 254.030899,68.969589 254.994751,62.101265 
z"/>
<path fill="#F4C21B" opacity="1.000000" stroke="none" 
	d="
M265.592285,42.373039 
	C262.291992,42.249317 258.998291,41.803719 259.027008,38.200035 
	C259.045990,35.814960 260.169830,32.346729 261.939026,31.311308 
	C264.950348,29.548965 268.384216,31.272573 269.778625,34.491737 
	C271.343872,38.105373 269.729889,40.918789 265.592285,42.373039 
z"/>
<path fill="#F0BF1B" opacity="1.000000" stroke="none" 
	d="
M163.382797,39.094437 
	C160.183945,39.441223 160.389389,38.069427 161.664978,36.382469 
	C164.115463,33.141644 166.413055,29.728336 169.246552,26.852016 
	C171.498795,24.565722 173.295731,26.746435 174.850800,28.492054 
	C176.334900,30.157993 177.333923,31.783985 174.642883,33.221634 
	C171.013809,35.160408 167.363083,37.058643 163.382797,39.094437 
z"/>
<path fill="#263238" opacity="1.000000" stroke="none" 
	d="
M247.180359,83.673553 
	C245.806458,80.224075 244.612869,76.419647 243.227173,71.833862 
	C242.996002,69.194077 242.956924,67.335640 242.917847,65.477211 
	C244.023010,64.630653 245.128174,63.784103 246.516235,62.834972 
	C247.810074,64.533089 249.764664,66.394119 249.654114,68.123116 
	C249.328476,73.216339 248.184402,78.257225 247.180359,83.673553 
z"/>
<path fill="#25272F" opacity="1.000000" stroke="none" 
	d="
M242.638336,65.711517 
	C242.956924,67.335640 242.996002,69.194077 243.044586,71.508575 
	C243.054108,71.964653 242.605850,71.985275 242.381622,71.992905 
	C242.224533,69.982300 242.291672,67.964058 242.638336,65.711517 
z"/>
<path fill="#3B5B90" opacity="1.000000" stroke="none" 
	d="
M72.306755,67.422340 
	C69.894966,70.987640 67.542183,74.187813 64.295959,78.603210 
	C62.177311,71.875900 60.469440,66.893440 59.144962,61.811069 
	C58.925762,60.969940 60.137112,59.131538 61.105328,58.706814 
	C67.374435,55.956783 72.016029,59.482250 72.306755,67.422340 
M65.396927,68.639282 
	C66.403915,68.269135 67.410904,67.898987 68.417892,67.528839 
	C67.631676,65.631554 66.845467,63.734264 66.059250,61.836979 
	C65.394073,62.082268 64.728897,62.327560 64.063721,62.572849 
	C64.412903,64.376999 64.762085,66.181152 65.396927,68.639282 
z"/>
<path fill="#455973" opacity="1.000000" stroke="none" 
	d="
M206.218002,54.984009 
	C206.888245,57.362976 207.407684,59.387955 208.088043,62.040268 
	C205.812408,61.774956 204.110504,61.576534 200.829529,61.194016 
	C203.024612,58.443081 204.545898,56.536549 206.218002,54.984009 
z"/>
<path fill="#3E5B86" opacity="1.000000" stroke="none" 
	d="
M234.634430,54.112167 
	C234.821732,51.937649 234.554382,48.982597 235.457733,48.565987 
	C237.374664,47.681908 239.901321,48.119896 242.177979,48.015842 
	C242.394882,48.544952 242.611771,49.074062 242.828659,49.603172 
	C240.644699,51.621792 238.477844,53.660343 236.223404,55.596920 
	C236.116882,55.688412 235.232422,54.874264 234.634430,54.112167 
z"/>
<path fill="#3A598C" opacity="1.000000" stroke="none" 
	d="
M169.972260,56.880196 
	C166.605011,61.188038 163.211502,65.116837 159.823502,69.039261 
	C155.388290,65.239937 154.741364,60.711662 157.819260,56.812325 
	C160.772995,53.070282 165.671738,52.944588 169.972260,56.880196 
z"/>
<path fill="#3E5C8C" opacity="1.000000" stroke="none" 
	d="
M105.212814,79.324295 
	C102.159584,83.677200 97.921028,84.497795 94.230865,82.002945 
	C92.229996,80.650192 91.091393,76.821945 91.095497,74.112679 
	C91.098396,72.209572 93.685249,70.310387 94.693085,68.973434 
	C96.084663,72.121033 96.555595,75.649788 98.343750,76.543739 
	C100.162170,77.452820 103.278564,75.765594 106.418800,75.087387 
	C106.230934,75.750351 105.774338,77.361641 105.212814,79.324295 
z"/>
<path fill="#262831" opacity="1.000000" stroke="none" 
	d="
M65.254097,68.312294 
	C64.762085,66.181152 64.412903,64.376999 64.063721,62.572849 
	C64.728897,62.327560 65.394073,62.082268 66.059250,61.836979 
	C66.845467,63.734264 67.631676,65.631554 68.417892,67.528839 
	C67.410904,67.898987 66.403915,68.269135 65.254097,68.312294 
z"/>
</svg>